<svg xmlns="http://www.w3.org/2000/svg" width="800" height="500" viewBox="0 0 800 500" direction="rtl">
<rect x="0" y="0" width="800" height="500" fill="#ffffff"/>
<rect x="0" y="0" width="800" height="64" fill="#047857"/>
<text x="760" y="30" text-anchor="end" font-size="20" font-weight="bold" fill="#ffffff" font-family="Tahoma">سامانه آفاق ـ راهنمای دانشجو</text>
<text x="760" y="50" text-anchor="end" font-size="12" fill="#e2e8f0" font-family="Tahoma">پایان‌نامه و پروپوزال</text>
<rect x="600" y="84" width="160" height="330" rx="12" fill="#d1fae5" stroke="#047857" stroke-width="1.5"/>
<rect x="618" y="104" width="124" height="14" rx="7" fill="#047857" opacity="0.55"/>
<rect x="618" y="130" width="124" height="14" rx="7" fill="#047857" opacity="0.3"/>
<rect x="618" y="156" width="124" height="14" rx="7" fill="#047857" opacity="0.3"/>
<rect x="618" y="182" width="124" height="14" rx="7" fill="#047857" opacity="0.3"/>
<rect x="618" y="208" width="124" height="14" rx="7" fill="#047857" opacity="0.2"/>
<rect x="240" y="120" width="300" height="16" rx="8" fill="#94a3b8"/><rect x="240" y="140" width="300" height="26" rx="8" fill="#ffffff" stroke="#64748b" stroke-width="1.5"/><rect x="240" y="176" width="300" height="16" rx="8" fill="#94a3b8"/><rect x="240" y="196" width="300" height="26" rx="8" fill="#ffffff" stroke="#64748b" stroke-width="1.5"/><rect x="240" y="232" width="300" height="16" rx="8" fill="#94a3b8"/><rect x="240" y="252" width="300" height="26" rx="8" fill="#ffffff" stroke="#64748b" stroke-width="1.5"/><rect x="240" y="288" width="300" height="16" rx="8" fill="#94a3b8"/><rect x="240" y="308" width="300" height="26" rx="8" fill="#ffffff" stroke="#64748b" stroke-width="1.5"/><rect x="390" y="356" width="150" height="34" rx="10" fill="#334155"/><rect x="410" y="367" width="110" height="12" rx="6" fill="#e2e8f0"/>
<rect x="0" y="428" width="800" height="72" fill="#0f172a"/>
<text x="400" y="456" text-anchor="middle" font-size="14" fill="#fbbf24" font-family="Tahoma">نقشه راهنما ـ تصویر موقت (student/thesis-proposal-1)</text>
<text x="400" y="478" text-anchor="middle" font-size="11" fill="#cbd5e1" font-family="Tahoma">فازهای سه‌گانه پایان‌نامه با وضعیت تأیید هر فاز</text>
</svg>